<?xml version="1.0" encoding="utf-8"?>
<!-- Generator: Adobe Illustrator 16.0.3, SVG Export Plug-In . SVG Version: 6.00 Build 0)  -->
<!DOCTYPE svg PUBLIC "-//W3C//DTD SVG 1.1//EN" "http://www.w3.org/Graphics/SVG/1.1/DTD/svg11.dtd">
<svg version="1.1" id="Layer_1" xmlns="http://www.w3.org/2000/svg" xmlns:xlink="http://www.w3.org/1999/xlink" x="0px" y="0px"
	 width="640px" height="480px" viewBox="0 0 640 480" enable-background="new 0 0 640 480" xml:space="preserve">
<g>
	<path fill="#FCDF66" d="M202.873,176.933c-9.171,0-18.857-1.381-28.792-4.105c-15.702-4.096-44.571-22.84-43.868-65.242
		c-0.548-18.861,9.23-55.53,50.529-65.093c2.212-0.547,9.938-2.255,20.06-2.255c13.885,0,26.214,3.143,36.646,9.341l0.302,0.183
		c11.517,7.096,24.925,26.403,14.847,50.596c-1.019,2.524-2.472,5.048-4.33,7.431c4.512,5.355,7.471,12.125,8.467,19.968
		c1.369,10.486-1.549,30.901-21.06,41.787C232.013,171.649,221.007,176.932,202.873,176.933z"/>
	<path fill="#FCDF66" d="M287.903,177.408c-27.091,0-48.307-11.823-59.74-33.292c-7.939-14.91-8.342-29.25-8.342-31.974
		c0-33.569,14.952-50.751,27.496-59.253c14.267-9.67,29.762-11.114,37.729-11.114c1.564,0,2.838,0.055,3.752,0.114
		c25.069,0.282,44.523,12.438,54.843,34.302c6.876,14.57,7.225,28.453,7.225,31.087c0,37.128-19.634,54.207-31.337,61.083
		C304.871,176.972,290.612,177.408,287.903,177.408z"/>
	<path fill="#FCDF66" d="M360.595,177.15c-26.991-0.327-42.521-23.669-44.167-46.914c-2.059-15.229-0.817-35.598-0.576-39.167
		c0.134-2.777,0.871-11.803,4.902-21.395C328.134,52.114,342.706,42,360.734,42h0.127c12.973,0,38.645,9.131,42.955,44.151
		l0.013,0.042c2.877,24.32,0.5,45.463,0.022,49.266c-2.022,20.823-17.29,41.708-42.825,41.708L360.595,177.15z"/>
	<path fill="#FCDF66" d="M465.571,176.349c-0.922,0-1.756-0.034-2.493-0.085c-9.708-0.052-18.646-2.897-26.317-8.186
		c-6.712,5.367-14.879,8.271-23.489,8.271c-0.906,0-1.73-0.034-2.462-0.086c-21.548-0.213-34.815-16.288-38.128-31.354
		c-7.088-30.073-0.883-62.155-0.117-65.872c3.434-17.749,18.742-37.265,44.404-38.41c0.839-0.038,1.673-0.056,2.488-0.056
		c9.72,0,18.506,2.601,25.89,7.478c6.313-4.234,13.723-6.574,21.183-6.574c0.364,0,0.707,0.006,1.025,0.016
		c0.158-0.001,0.315-0.002,0.472-0.002c22.361,0,36.555,16.446,39.196,32.885c6.015,32.09-0.345,61.606-1.241,65.489
		C500.173,166.788,480.604,176.349,465.571,176.349z"/>
	<path fill="#FCCC29" d="M202.873,180.933c-9.171,0-18.857-1.381-28.792-4.105c-15.702-4.096-44.571-22.84-43.868-65.242
		c-0.548-18.861,9.23-55.53,50.529-65.093c2.212-0.547,9.938-2.255,20.06-2.255c13.885,0,26.214,3.143,36.646,9.341l0.302,0.183
		c11.517,7.096,24.925,26.403,14.847,50.596c-1.019,2.524-2.472,5.048-4.33,7.431c4.512,5.355,7.471,12.125,8.467,19.968
		c1.369,10.486-1.549,30.901-21.06,41.787C232.013,175.649,221.007,180.932,202.873,180.933z"/>
	<path fill="#FCCC29" d="M287.903,181.408c-27.091,0-48.307-11.823-59.74-33.292c-7.939-14.91-8.342-29.25-8.342-31.974
		c0-33.569,14.952-50.751,27.496-59.253c14.267-9.67,29.762-11.114,37.729-11.114c1.564,0,2.838,0.055,3.752,0.114
		c25.069,0.282,44.523,12.438,54.843,34.302c6.876,14.57,7.225,28.453,7.225,31.087c0,37.128-19.634,54.207-31.337,61.083
		C304.871,180.972,290.612,181.408,287.903,181.408z"/>
	<path fill="#FCCC29" d="M360.595,181.15c-26.991-0.327-42.521-23.669-44.167-46.914c-2.059-15.229-0.817-35.598-0.576-39.167
		c0.134-2.777,0.871-11.803,4.902-21.395C328.134,56.114,342.706,46,360.734,46h0.127c12.973,0,38.645,9.131,42.955,44.151
		l0.013,0.042c2.877,24.32,0.5,45.463,0.022,49.266c-2.022,20.823-17.29,41.708-42.825,41.708L360.595,181.15z"/>
	<path fill="#FCCC29" d="M465.571,180.349c-0.922,0-1.756-0.034-2.493-0.085c-9.708-0.052-18.646-2.897-26.317-8.186
		c-6.712,5.367-14.879,8.271-23.489,8.271c-0.906,0-1.73-0.034-2.462-0.086c-21.548-0.213-34.815-16.288-38.128-31.354
		c-7.088-30.073-0.883-62.155-0.117-65.872c3.434-17.749,18.742-37.265,44.404-38.41c0.839-0.038,1.673-0.056,2.488-0.056
		c9.72,0,18.506,2.601,25.89,7.478c6.313-4.234,13.723-6.574,21.183-6.574c0.364,0,0.707,0.006,1.025,0.016
		c0.158-0.001,0.315-0.002,0.472-0.002c22.361,0,36.555,16.446,39.196,32.885c6.015,32.09-0.345,61.606-1.241,65.489
		C500.173,170.788,480.604,180.349,465.571,180.349z"/>
	<path fill="#CDA722" d="M197.537,108.87c0,0-1.152,11.137,15.104,9.344c0,0,20.098-3.456,22.273,13.953
		c0,0,1.792,13.313-10.112,19.841c0,0-15.36,9.344-45.059,1.152c0,0-28.417-7.168-27.521-44.162c0,0-1.664-35.458,33.666-43.522
		c0,0,22.657-5.888,40.322,4.608c0,0,12.673,7.808,6.017,23.553c0,0-3.969,10.369-19.969,7.424
		C212.258,101.061,198.176,98.117,197.537,108.87z"/>
	<path fill="#CDA722" d="M328.865,108.87c0,48.13-40.962,48.13-40.962,48.13c-46.082,0-46.082-43.266-46.082-43.266
		c0-52.995,46.082-48.258,46.082-48.258C328.865,65.476,328.865,108.87,328.865,108.87z M280.863,111.942
		c0.256,3.584,2.305,4.736,5.12,4.736c2.816,0,4.992-1.792,4.992-4.736c0-2.688-1.792-5.376-4.992-5.376
		C283.039,106.565,280.607,109.253,280.863,111.942z"/>
	<path fill="#CDA722" d="M337.819,93.893c0,0,0.896-28.417,23.042-28.545c0,0,18.048,0,21.12,24.961c2.816,23.809,0,44.29,0,44.29
		s-1.92,22.273-21.12,22.145c-21.121-0.256-22.529-27.137-22.529-27.137C336.283,115.654,337.819,93.893,337.819,93.893z"/>
	<path fill="#CDA722" d="M417.949,64.195c28.545-1.28,28.929,33.794,28.929,33.794c-0.384-35.074,20.354-32.897,20.354-32.897
		c16.129-0.512,18.305,14.592,18.305,14.592c5.633,29.569-1.024,56.963-1.024,56.963c-4.607,21.761-20.48,19.201-20.48,19.201
		c-27.905,0.64-31.617-38.146-31.617-38.146c2.304,41.986-20.609,38.146-20.609,38.146c-14.593,0.384-17.665-14.208-17.665-14.208
		c-6.4-26.881,0-56.707,0-56.707S397.853,65.092,417.949,64.195z"/>
	<path fill="#E0B626" d="M197.537,111.87c0,0-1.152,11.137,15.104,9.344c0,0,20.098-3.456,22.273,13.953
		c0,0,1.792,13.313-10.112,19.841c0,0-15.36,9.344-45.059,1.152c0,0-28.417-7.168-27.521-44.162c0,0-1.664-35.458,33.666-43.522
		c0,0,22.657-5.888,40.322,4.608c0,0,12.673,7.808,6.017,23.553c0,0-3.969,10.369-19.969,7.424
		C212.258,104.061,198.176,101.117,197.537,111.87z"/>
	<path fill="#E0B626" d="M328.865,111.87c0,48.13-40.962,48.13-40.962,48.13c-46.082,0-46.082-43.266-46.082-43.266
		c0-52.995,46.082-48.258,46.082-48.258C328.865,68.476,328.865,111.87,328.865,111.87z M280.863,114.942
		c0.256,3.584,2.305,4.736,5.12,4.736c2.816,0,4.992-1.792,4.992-4.736c0-2.688-1.792-5.376-4.992-5.376
		C283.039,109.565,280.607,112.253,280.863,114.942z"/>
	<path fill="#E0B626" d="M337.819,96.893c0,0,0.896-28.417,23.042-28.545c0,0,18.048,0,21.12,24.961c2.816,23.809,0,44.29,0,44.29
		s-1.92,22.273-21.12,22.145c-21.121-0.256-22.529-27.137-22.529-27.137C336.283,118.654,337.819,96.893,337.819,96.893z"/>
	<path fill="#E0B626" d="M417.949,67.195c28.545-1.28,28.929,33.794,28.929,33.794c-0.384-35.074,20.354-32.897,20.354-32.897
		c16.129-0.512,18.305,14.592,18.305,14.592c5.633,29.569-1.024,56.963-1.024,56.963c-4.607,21.761-20.48,19.201-20.48,19.201
		c-27.905,0.64-31.617-38.146-31.617-38.146c2.304,41.986-20.609,38.146-20.609,38.146c-14.593,0.384-17.665-14.208-17.665-14.208
		c-6.4-26.881,0-56.707,0-56.707S397.853,68.092,417.949,67.195z"/>
</g>
<g>
	<path fill="#609684" d="M131,257v-85h61.694C205.602,172,216,182.664,216,195.522v38.158C216,246.539,205.602,257,192.694,257H131z
		 M182,223v-17h-17v17H182z"/>
	<path fill="#609684" d="M229.325,257C216.467,257,206,246.539,206,233.681V172h34v51h17v-51h34v61.681
		C291,246.539,280.342,257,267.483,257H229.325z"/>
	<path fill="#609684" d="M281,257v-85h61.272C355.181,172,366,182.664,366,195.522v38.158C366,246.539,355.181,257,342.272,257H281z
		 M332,223v-17h-17v17H332z"/>
	<polygon fill="#609684" points="356,257 356,172 436,172 436,206 427,206 427,223 436,223 436,257 	"/>
	<path fill="#609684" d="M480.351,257l-17.808-21.307L459,235.711V236l0,0v21h-34v-85h61.002C498.91,172,509,182.754,509,195.612
		v16.739c0,6.797-2.73,12.925-7.402,17.191c1.795,2.117,3.472,4.228,5.188,6.286L509,238.61V257H480.351z"/>
	<path fill="#3A594E" d="M131,261v-85h61.694C205.602,176,216,186.664,216,199.522v38.158C216,250.539,205.602,261,192.694,261H131z
		 M182,227v-17h-17v17H182z"/>
	<path fill="#3A594E" d="M229.325,261C216.467,261,206,250.539,206,237.681V176h34v51h17v-51h34v61.681
		C291,250.539,280.342,261,267.483,261H229.325z"/>
	<path fill="#3A594E" d="M281,261v-85h61.272C355.181,176,366,186.664,366,199.522v38.158C366,250.539,355.181,261,342.272,261H281z
		 M332,227v-17h-17v17H332z"/>
	<polygon fill="#3A594E" points="356,261 356,176 436,176 436,210 427,210 427,227 436,227 436,261 	"/>
	<path fill="#3A594E" d="M480.351,261l-17.808-21.307L459,239.711V240l0,0v21h-34v-85h61.002C498.91,176,509,186.754,509,199.612
		v16.739c0,6.797-2.73,12.925-7.402,17.191c1.795,2.117,3.472,4.228,5.188,6.286L509,242.61V261H480.351z"/>
	<path fill="#8ECEB9" d="M192.694,185.203c7.379,0,13.41,5.939,13.41,13.319v38.158c0,7.38-6.03,13.319-13.41,13.319h-51.388
		v-64.797H192.694z M155.255,235.961h36.718v-36.719h-36.718V235.961z"/>
	<path fill="#8ECEB9" d="M229.955,235.961h36.719v-50.758h14.129v51.478c0,7.38-6.029,13.319-13.319,13.319h-38.158
		c-7.38,0-13.319-5.939-13.319-13.319v-51.478h13.949V235.961z"/>
	<path fill="#8ECEB9" d="M342.272,185.203c7.38,0,13.41,5.939,13.41,13.319v38.158c0,7.38-6.03,13.319-13.41,13.319h-51.388v-64.797
		H342.272z M304.834,235.961h36.719v-36.719h-36.719V235.961z"/>
	<path fill="#8ECEB9" d="M425.792,199.242h-45.718v11.34h36.809v14.039h-36.809v11.34h45.718V250h-59.848v-64.797h59.848V199.242z"
		/>
	<path fill="#8ECEB9" d="M499.411,215.352c0,7.289-6.029,13.319-13.409,13.319h-0.63c4.59,5.399,9.539,11.159,14.039,16.56V250
		h-14.399l-17.909-21.329l-18.539,0.09c0.18,0,0.27,0.18,0.27,0.54c0,0-0.18,0-0.27-0.09V250h-13.949v-64.707h51.388
		c7.38,0,13.409,6.029,13.409,13.319V215.352z M448.563,214.632h36.719v-15.39h-36.719V214.632z"/>
	<path fill="#9CD6C2" d="M192.694,187c7.379,0,13.41,5.939,13.41,13.319v38.158c0,7.38-6.03,13.319-13.41,13.319h-51.388V187
		H192.694z M155.255,237.758h36.718v-36.719h-36.718V237.758z"/>
	<path fill="#9CD6C2" d="M229.955,237.758h36.719V187h14.129v51.478c0,7.38-6.029,13.319-13.319,13.319h-38.158
		c-7.38,0-13.319-5.939-13.319-13.319V187h13.949V237.758z"/>
	<path fill="#9CD6C2" d="M342.272,187c7.38,0,13.41,5.939,13.41,13.319v38.158c0,7.38-6.03,13.319-13.41,13.319h-51.388V187H342.272
		z M304.834,237.758h36.719v-36.719h-36.719V237.758z"/>
	<path fill="#9CD6C2" d="M425.792,201.039h-45.718v11.34h36.809v14.039h-36.809v11.34h45.718v14.039h-59.848V187h59.848V201.039z"/>
	<path fill="#9CD6C2" d="M499.411,217.148c0,7.289-6.029,13.319-13.409,13.319h-0.63c4.59,5.399,9.539,11.159,14.039,16.56v4.77
		h-14.399l-17.909-21.329l-18.539,0.09c0.18,0,0.27,0.18,0.27,0.54c0,0-0.18,0-0.27-0.09v20.789h-13.949V187.09h51.388
		c7.38,0,13.409,6.029,13.409,13.319V217.148z M448.563,216.429h36.719v-15.39h-36.719V216.429z"/>
</g>
</svg>
